# xmcd CD database file
#
# Track frame offsets:
#	150
#	19405
#	38577
#	55312
#	72012
#	86403
#	100766
#	115127
#	129534
#	148343
#	166826
#	185707
#	204568
#	219345
#	234183
#	249614
#	265112
#	283751
#	302396
#	318260
#	334099
#
# Disc length: 4473 seconds
#
# Revision: 0
# Processed by: cddbd v1.5.2PL0 Copyright (c) Steve Scherf et al.
# Submitted via: CDex 1.51
#
DISCID=29117715
DTITLE=Hal Leonard - All Time Standards
DYEAR=1900
DGENRE=Jazz
TTITLE0=Autumn In New York (Split)
TTITLE1=Autumn In New York (Stereo)
TTITLE2=Broadway (Split)
TTITLE3=Broadway (Stereo)
TTITLE4=Bye Bye Blackbird (Split)
TTITLE5=Bye Bye Blackbird (Stereo)
TTITLE6=Call Me Irresponsible (Split)
TTITLE7=Call Me Irresponsible (Stereo)
TTITLE8=Georgia On My Mind (Split)
TTITLE9=Georgia On My Mind (Stereo)
TTITLE10=The Very Thought Of You (Split)
TTITLE11=The Very Thought Of You (Stereo)
TTITLE12=Honeysuckle Rose (Split)
TTITLE13=Honeysuckle Rose (Stereo)
TTITLE14=I'll Remember April (Split)
TTITLE15=I'll Remember April (Stereo)
TTITLE16=Stardust (Split)
TTITLE17=Stardust (Stereo)
TTITLE18=There Is No Greater Love (Split)
TTITLE19=There Is No Greater Love (Stereo)
TTITLE20=Bb Tuning Note
EXTD=
EXTT0=
EXTT1=
EXTT2=
EXTT3=
EXTT4=
EXTT5=
EXTT6=
EXTT7=
EXTT8=
EXTT9=
EXTT10=
EXTT11=
EXTT12=
EXTT13=
EXTT14=
EXTT15=
EXTT16=
EXTT17=
EXTT18=
EXTT19=
EXTT20=
PLAYORDER=
